<svg width="742" height="159" viewBox="0 0 742 159" fill="none" xmlns="http://www.w3.org/2000/svg" role="img" aria-label="Backtrack logo">
  <defs>
    <linearGradient id="bg" x1="77.5" y1="12" x2="77.5" y2="151" gradientUnits="userSpaceOnUse">
      <stop offset="0" stop-color="#071725"/>
      <stop offset="1" stop-color="#030A13"/>
    </linearGradient>
    <linearGradient id="mark" x1="46" y1="45" x2="109" y2="116" gradientUnits="userSpaceOnUse">
      <stop offset="0" stop-color="#31E6C8"/>
      <stop offset="0.55" stop-color="#20D6B2"/>
      <stop offset="1" stop-color="#11C79F"/>
    </linearGradient>
    <filter id="softShadow" x="32" y="31" width="91" height="99" filterUnits="userSpaceOnUse" color-interpolation-filters="sRGB">
      <feDropShadow dx="0" dy="1" stdDeviation="1" flood-color="#000000" flood-opacity="0.25"/>
    </filter>
  </defs>

  <rect x="5.5" y="12.5" width="144" height="138" rx="20.5" fill="url(#bg)"/>
  <rect x="5.5" y="12.5" width="144" height="138" rx="20.5" stroke="#314050" stroke-width="2"/>

  <g filter="url(#softShadow)" fill="url(#mark)">
    <path d="M46 45H91L109 67L92 85L76 84L82 75L90 73L96 75L97 73L87 62H60L46 45Z"/>
    <path d="M109 93L91 116H46L60 100H86L100 85L109 93Z"/>
  </g>

  <text x="178" y="112" fill="#FFFFFF" font-family="Inter, ui-sans-serif, system-ui, -apple-system, Segoe UI, Roboto, Arial, sans-serif" font-size="112" font-weight="700" letter-spacing="-1.5">Backtrack</text>
</svg>
